<svg width="240" height="32" viewBox="0 0 240 32" fill="none" xmlns="http://www.w3.org/2000/svg">
<circle cx="16" cy="16" r="16" fill="#A3E4D7"/>
<path d="M8.5 10.5L16 22L23.5 10.5" stroke="#1F6F5F" stroke-width="2.8" stroke-linecap="round" stroke-linejoin="round"/>
<path d="M30 8.5H40V12.1H33.8V16.2H39.6V19.5H33.8V23.5H40V27H30V8.5Z" fill="#FFFFFF"/>
<path d="M44 8.5H48.3L54.6 18.9V8.5H58V27H53.7L47.4 16.6V27H44V8.5Z" fill="#FFFFFF"/>
<path d="M63.8 8.5H68.1L72.8 21.2C72.9 21.5 73.1 22 73.3 22.8C73.4 22.1 73.6 21.5 73.8 21.1L78.7 8.5H82.8L75.2 27H71.3L63.8 8.5Z" fill="#FFFFFF"/>
<path d="M86 8.5H96.3C99.8 8.5 102.2 10.6 102.2 13.7C102.2 15.7 101.2 17.2 99.6 18V18.1C101.8 18.8 103 20.5 103 23C103 26.2 100.5 27 96.9 27H86V8.5ZM92.2 16H95.2C96.8 16 97.8 15.2 97.8 14C97.8 12.8 96.9 12 95.1 12H92.2V16ZM92.2 23.4H95.7C97.5 23.4 98.4 22.7 98.4 21.4C98.4 20 97.4 19.2 95.5 19.2H92.2V23.4Z" fill="#FFFFFF"/>
<path d="M110.5 8.5H114.5V27H110.5V8.5Z" fill="#FFFFFF"/>
<path d="M119 17.8C119 12.2 123.1 8 128.9 8C134.8 8 138.8 12.2 138.8 17.8C138.8 23.4 134.7 27.5 128.9 27.5C123.1 27.5 119 23.4 119 17.8ZM134.4 17.8C134.4 14.4 132.2 12.1 128.9 12.1C125.6 12.1 123.4 14.4 123.4 17.8C123.4 21.2 125.6 23.5 128.9 23.5C132.2 23.5 134.4 21.2 134.4 17.8Z" fill="#FFFFFF"/>
<path d="M143.8 8.5H148.2L154.4 18.9V8.5H158V27H153.6L147.4 16.6V27H143.8V8.5Z" fill="#FFFFFF"/>
<path d="M162.8 8.5H167.1L171.8 21.2C171.9 21.5 172.1 22 172.3 22.8C172.4 22.1 172.6 21.5 172.8 21.1L177.7 8.5H181.8L174.2 27H170.3L162.8 8.5Z" fill="#FFFFFF"/>
<path d="M185 8.5H195.3C198.8 8.5 201.2 10.6 201.2 13.7C201.2 15.7 200.2 17.2 198.6 18V18.1C200.8 18.8 202 20.5 202 23C202 26.2 199.5 27 195.9 27H185V8.5ZM191.2 16H194.2C195.8 16 196.8 15.2 196.8 14C196.8 12.8 195.9 12 194.1 12H191.2V16ZM191.2 23.4H194.7C196.5 23.4 197.4 22.7 197.4 21.4C197.4 20 196.4 19.2 194.5 19.2H191.2V23.4Z" fill="#FFFFFF"/>
<path d="M210.2 8.5H214.2V27H210.2V8.5Z" fill="#FFFFFF"/>
<path d="M218.5 8.5H223L229.2 18.9V8.5H233V27H228.7L222.5 16.6V27H218.5V8.5Z" fill="#FFFFFF"/>
</svg>
